<?xml version="1.0" standalone="no"?>
<!DOCTYPE svg PUBLIC "-//W3C//DTD SVG 20010904//EN"
 "http://www.w3.org/TR/2001/REC-SVG-20010904/DTD/svg10.dtd">
<svg version="1.0" xmlns="http://www.w3.org/2000/svg"
 width="512.000000pt" height="512.000000pt" viewBox="0 0 512.000000 512.000000"
 preserveAspectRatio="xMidYMid meet">
<metadata>
Created by potrace 1.14, written by Peter Selinger 2001-2017
</metadata>
<g transform="translate(0.000000,512.000000) scale(0.100000,-0.100000)"
fill="#000000" stroke="none">
<path d="M3201 5109 c-274 -53 -490 -250 -579 -529 -21 -67 -27 -92 -38 -170
-3 -25 -6 -467 -6 -983 0 -646 -4 -939 -11 -944 -6 -3 -553 -7 -1216 -7 -1200
-1 -1206 -1 -1203 -21 11 -63 119 -296 204 -439 208 -351 535 -685 859 -877
145 -86 282 -154 431 -215 l48 -19 0 -75 c1 -41 1 -245 1 -453 l0 -377 343 0
342 0 -1 148 0 147 -191 3 -191 2 -1 250 c-1 138 2 250 6 250 4 0 36 -7 72
-16 178 -42 347 -70 493 -80 l87 -7 0 -51 c1 -28 1 -185 1 -349 l0 -297 343 0
342 0 -1 147 0 148 -192 3 -193 2 1 195 1 195 32 0 c27 1 135 18 201 33 11 3
49 17 85 31 210 86 391 263 483 473 62 140 70 196 70 458 0 132 -3 389 -7 570
-3 182 -9 454 -12 605 -3 151 -7 350 -8 441 l-3 166 94 114 c53 63 114 136
137 163 22 27 44 54 48 61 6 9 103 12 420 13 227 0 430 1 451 1 l37 1 -2 171
-3 171 -440 223 -440 223 -3 255 -2 254 -423 0 c-232 1 -442 -3 -466 -8z"/>
</g>
</svg>
