<svg id="svg" version="1.1" xmlns="http://www.w3.org/2000/svg" xmlns:xlink="http://www.w3.org/1999/xlink" width="400" height="400" viewBox="0, 0, 400,400"><g id="svgg"><path id="path0" d="M319.600 71.200 L 319.600 102.800 354.600 102.800 L 389.600 102.800 389.600 88.400 C 389.600 74.267,389.585 74.000,388.800 74.000 C 388.360 74.000,388.000 73.820,388.000 73.600 C 388.000 73.380,387.640 73.200,387.200 73.200 C 386.760 73.200,386.400 73.020,386.400 72.800 C 386.400 72.580,386.040 72.400,385.600 72.400 C 385.160 72.400,384.800 72.220,384.800 72.000 C 384.800 71.780,384.440 71.600,384.000 71.600 C 383.560 71.600,383.200 71.420,383.200 71.200 C 383.200 70.980,382.840 70.800,382.400 70.800 C 381.960 70.800,381.600 70.620,381.600 70.400 C 381.600 70.180,381.255 70.000,380.833 70.000 C 380.412 70.000,380.007 69.865,379.933 69.700 C 379.860 69.535,378.990 68.970,378.000 68.445 C 376.000 67.384,368.288 63.352,365.800 62.067 C 361.887 60.047,359.244 58.889,359.031 59.102 C 358.904 59.229,358.800 59.123,358.800 58.867 C 358.800 58.610,358.440 58.400,358.000 58.400 C 357.560 58.400,357.200 58.220,357.200 58.000 C 357.200 57.780,356.930 57.600,356.600 57.600 C 356.270 57.600,356.000 57.420,356.000 57.200 C 356.000 56.980,355.640 56.800,355.200 56.800 C 354.760 56.800,354.400 56.620,354.400 56.400 C 354.400 56.180,354.040 56.000,353.600 56.000 C 353.160 56.000,352.800 55.820,352.800 55.600 C 352.800 55.380,352.440 55.200,352.000 55.200 C 351.560 55.200,351.200 55.020,351.200 54.800 C 351.200 54.580,350.840 54.400,350.400 54.400 C 349.960 54.400,349.600 54.220,349.600 54.000 C 349.600 53.780,349.240 53.600,348.800 53.600 C 348.360 53.600,348.000 53.420,348.000 53.200 C 348.000 52.980,347.640 52.800,347.200 52.800 C 346.760 52.800,346.400 52.620,346.400 52.400 C 346.400 52.180,346.040 52.000,345.600 52.000 C 345.160 52.000,344.800 51.820,344.800 51.600 C 344.800 51.380,344.440 51.200,344.000 51.200 C 343.560 51.200,343.200 51.020,343.200 50.800 C 343.200 50.580,342.840 50.400,342.400 50.400 C 341.960 50.400,341.600 50.254,341.600 50.075 C 341.600 49.896,340.970 49.502,340.200 49.200 C 339.430 48.898,338.800 48.504,338.800 48.325 C 338.800 48.146,338.440 48.000,338.000 48.000 C 337.560 48.000,337.200 47.820,337.200 47.600 C 337.200 47.380,336.840 47.200,336.400 47.200 C 335.960 47.200,335.600 47.020,335.600 46.800 C 335.600 46.580,335.240 46.400,334.800 46.400 C 334.360 46.400,334.000 46.220,334.000 46.000 C 334.000 45.780,333.640 45.600,333.200 45.600 C 332.760 45.600,332.400 45.420,332.400 45.200 C 332.400 44.980,332.040 44.800,331.600 44.800 C 331.160 44.800,330.800 44.620,330.800 44.400 C 330.800 44.180,330.440 44.000,330.000 44.000 C 329.560 44.000,329.200 43.809,329.200 43.576 C 329.200 43.343,329.035 43.255,328.832 43.380 C 328.630 43.505,328.193 43.336,327.861 43.004 C 327.529 42.672,327.009 42.400,326.705 42.400 C 326.401 42.400,325.804 42.136,325.376 41.813 C 324.949 41.490,324.285 41.220,323.900 41.213 C 323.515 41.206,323.200 41.020,323.200 40.800 C 323.200 40.580,322.840 40.400,322.400 40.400 C 321.960 40.400,321.600 40.220,321.600 40.000 C 321.600 39.780,321.150 39.600,320.600 39.600 L 319.600 39.600 319.600 71.200 M131.890 329.844 C 131.730 330.003,131.600 345.853,131.600 365.067 L 131.600 400.000 159.000 400.000 L 186.400 400.000 186.400 388.000 L 186.400 376.000 171.604 376.000 L 156.808 376.000 156.704 356.975 L 156.600 337.949 155.600 337.414 C 155.050 337.120,153.790 336.658,152.800 336.388 C 151.810 336.118,147.040 334.560,142.200 332.925 C 137.360 331.290,133.125 329.863,132.790 329.753 C 132.454 329.643,132.049 329.684,131.890 329.844 M207.197 345.933 C 206.940 346.020,206.800 355.562,206.800 373.033 L 206.800 400.000 234.000 400.000 L 261.200 400.000 261.200 388.000 L 261.200 376.000 246.400 376.000 L 231.600 376.000 231.600 361.218 L 231.600 346.436 230.300 346.215 C 228.880 345.974,207.840 345.717,207.197 345.933 " stroke="none" fill="#fb771e" fill-rule="evenodd"></path><path id="path1" d="M249.200 0.295 C 248.210 0.381,247.229 0.619,247.020 0.825 C 246.811 1.031,246.147 1.200,245.544 1.200 C 244.941 1.200,244.336 1.380,244.200 1.600 C 244.064 1.820,243.333 2.000,242.576 2.000 C 241.819 2.000,241.200 2.180,241.200 2.400 C 241.200 2.620,240.840 2.800,240.400 2.800 C 239.960 2.800,239.600 2.991,239.600 3.224 C 239.600 3.457,239.452 3.556,239.271 3.444 C 239.091 3.332,238.440 3.502,237.826 3.820 C 237.211 4.139,236.459 4.400,236.154 4.400 C 235.849 4.400,235.600 4.580,235.600 4.800 C 235.600 5.020,235.240 5.200,234.800 5.200 C 234.360 5.200,234.000 5.380,234.000 5.600 C 234.000 5.820,233.655 6.000,233.233 6.000 C 232.812 6.000,232.407 6.135,232.333 6.300 C 232.166 6.676,230.036 7.975,229.100 8.271 C 228.715 8.393,228.400 8.652,228.400 8.847 C 228.400 9.041,228.201 9.200,227.958 9.200 C 227.715 9.200,226.950 9.648,226.258 10.196 C 225.566 10.745,224.572 11.510,224.048 11.896 C 222.687 12.902,214.800 20.815,214.800 21.175 C 214.800 21.340,214.350 21.999,213.800 22.638 C 213.251 23.277,212.801 23.959,212.800 24.153 C 212.800 24.347,212.472 24.797,212.072 25.153 C 211.671 25.509,210.816 26.880,210.172 28.200 C 209.527 29.520,208.910 30.690,208.800 30.800 C 208.322 31.278,207.600 32.839,207.600 33.395 C 207.600 33.728,207.420 34.000,207.200 34.000 C 206.980 34.000,206.800 34.360,206.800 34.800 C 206.800 35.240,206.620 35.600,206.400 35.600 C 206.180 35.600,206.000 36.140,206.000 36.800 C 206.000 37.460,205.820 38.000,205.600 38.000 C 205.380 38.000,205.200 38.349,205.200 38.776 C 205.200 39.203,205.020 39.664,204.800 39.800 C 204.580 39.936,204.400 40.476,204.400 41.000 C 204.400 41.524,204.220 42.064,204.000 42.200 C 203.780 42.336,203.600 42.977,203.600 43.624 C 203.600 44.271,203.420 44.800,203.200 44.800 C 202.980 44.800,202.800 45.520,202.800 46.400 C 202.800 47.280,202.620 48.000,202.400 48.000 C 202.180 48.000,202.000 48.954,202.000 50.120 C 202.000 51.286,201.833 52.411,201.629 52.620 C 200.496 53.781,199.870 205.471,200.996 206.102 C 201.842 206.575,201.864 253.405,201.020 257.800 C 196.839 279.572,180.562 296.550,159.000 301.630 C 152.909 303.065,149.415 303.193,116.000 303.203 C 84.119 303.212,80.235 303.349,82.914 304.367 C 83.511 304.594,84.000 304.975,84.000 305.214 C 84.000 305.452,84.180 305.536,84.400 305.400 C 84.620 305.264,84.800 305.340,84.800 305.569 C 84.800 305.798,85.249 306.097,85.797 306.235 C 86.346 306.373,86.695 306.646,86.574 306.843 C 86.377 307.160,86.677 307.270,87.455 307.166 C 87.596 307.147,87.822 307.313,87.959 307.534 C 88.096 307.755,88.468 307.995,88.786 308.068 C 89.104 308.141,89.785 308.605,90.300 309.100 C 90.815 309.595,91.395 310.000,91.590 310.000 C 91.784 310.000,92.224 310.281,92.567 310.625 C 92.911 310.968,93.541 311.275,93.968 311.308 C 94.395 311.340,94.666 311.493,94.570 311.649 C 94.474 311.804,94.936 312.170,95.598 312.463 C 96.259 312.756,96.800 313.131,96.800 313.298 C 96.800 313.464,97.070 313.600,97.400 313.600 C 97.730 313.600,98.000 313.780,98.000 314.000 C 98.000 314.220,98.242 314.400,98.539 314.400 C 99.302 314.400,101.424 315.507,102.007 316.208 C 102.277 316.534,102.746 316.800,103.049 316.800 C 103.352 316.800,103.600 317.010,103.600 317.267 C 103.600 317.523,103.703 317.631,103.828 317.505 C 103.954 317.380,105.259 317.886,106.728 318.631 C 108.198 319.376,109.597 319.988,109.838 319.993 C 110.079 319.997,110.602 320.360,111.000 320.800 C 111.398 321.240,111.854 321.600,112.013 321.600 C 112.172 321.600,112.999 321.903,113.851 322.274 C 114.703 322.645,115.535 322.915,115.700 322.874 C 115.865 322.833,116.000 322.980,116.000 323.200 C 116.000 323.420,116.360 323.600,116.800 323.600 C 117.240 323.600,117.600 323.759,117.600 323.953 C 117.600 324.321,118.690 324.755,120.400 325.067 C 120.950 325.167,121.460 325.418,121.533 325.625 C 121.607 325.831,122.012 326.000,122.433 326.000 C 122.855 326.000,123.200 326.180,123.200 326.400 C 123.200 326.620,123.614 326.800,124.120 326.800 C 125.174 326.800,127.192 327.653,127.197 328.100 C 127.199 328.265,127.650 328.400,128.200 328.400 C 128.750 328.400,129.200 328.591,129.200 328.824 C 129.200 329.057,129.365 329.145,129.568 329.020 C 129.770 328.895,130.225 329.082,130.579 329.436 C 131.071 329.929,131.351 329.972,131.773 329.622 C 132.308 329.178,134.150 329.391,135.000 329.995 C 135.481 330.336,150.584 335.297,153.346 336.020 C 154.417 336.301,155.853 337.042,156.539 337.668 C 157.224 338.293,157.968 338.737,158.192 338.655 C 158.416 338.572,159.158 338.730,159.839 339.006 C 160.930 339.448,164.473 340.103,165.304 340.016 C 165.471 339.998,166.125 340.251,166.757 340.578 C 167.389 340.905,168.284 341.099,168.745 341.011 C 169.206 340.922,169.699 341.037,169.842 341.267 C 170.010 341.539,170.220 341.496,170.444 341.143 C 170.633 340.844,170.791 340.788,170.794 341.018 C 170.797 341.248,171.475 341.481,172.300 341.536 C 173.125 341.590,173.860 341.807,173.933 342.018 C 174.007 342.228,174.952 342.400,176.033 342.400 C 177.115 342.400,178.000 342.580,178.000 342.800 C 178.000 343.026,179.141 343.200,180.624 343.200 C 182.100 343.200,183.149 343.359,183.022 343.564 C 182.803 343.919,184.413 344.135,191.000 344.636 C 192.760 344.770,194.311 345.058,194.446 345.275 C 194.581 345.493,195.121 345.635,195.646 345.591 C 198.302 345.369,202.826 345.635,202.600 346.000 C 202.447 346.248,203.196 346.400,204.576 346.400 C 206.351 346.400,206.800 346.270,206.800 345.758 C 206.800 345.045,205.088 345.025,227.770 346.005 C 236.394 346.378,239.525 346.390,240.065 346.052 C 240.463 345.804,241.692 345.600,242.795 345.600 C 243.898 345.600,244.800 345.420,244.800 345.200 C 244.800 344.980,245.520 344.800,246.400 344.800 C 247.280 344.800,248.000 344.620,248.000 344.400 C 248.000 344.180,248.630 344.000,249.400 344.000 C 250.170 344.000,250.800 343.820,250.800 343.600 C 250.800 343.380,251.239 343.200,251.776 343.200 C 252.313 343.200,252.864 343.020,253.000 342.800 C 253.136 342.580,253.597 342.400,254.024 342.400 C 254.451 342.400,254.800 342.220,254.800 342.000 C 254.800 341.780,255.242 341.600,255.781 341.600 C 256.884 341.600,258.800 340.826,258.800 340.380 C 258.800 340.220,259.025 340.112,259.300 340.140 C 259.746 340.185,264.120 338.000,266.191 336.697 C 269.687 334.498,272.115 332.783,273.936 331.226 C 276.985 328.618,281.600 324.096,281.600 323.716 C 281.600 323.538,281.922 323.192,282.315 322.946 C 283.168 322.413,288.000 316.168,288.000 315.598 C 288.000 315.379,288.142 315.200,288.317 315.200 C 288.491 315.200,288.911 314.615,289.250 313.900 C 290.585 311.083,292.616 307.393,292.900 307.267 C 293.065 307.193,293.200 306.698,293.200 306.167 C 293.200 305.635,293.380 305.200,293.600 305.200 C 293.820 305.200,294.000 304.840,294.000 304.400 C 294.000 303.960,294.180 303.600,294.400 303.600 C 294.620 303.600,294.800 303.238,294.800 302.795 C 294.800 302.352,294.980 301.632,295.200 301.195 C 295.420 300.758,295.780 300.042,296.000 299.605 C 296.220 299.168,296.400 298.369,296.400 297.829 C 296.400 297.289,296.580 296.736,296.800 296.600 C 297.020 296.464,297.200 295.823,297.200 295.176 C 297.200 294.529,297.380 294.000,297.600 294.000 C 297.820 294.000,298.000 293.291,298.000 292.424 C 298.000 291.557,298.180 290.736,298.400 290.600 C 298.620 290.464,298.800 289.384,298.800 288.200 C 298.800 287.016,298.985 285.933,299.211 285.793 C 299.736 285.469,299.716 242.907,299.190 242.725 C 298.980 242.653,298.808 234.120,298.781 222.501 C 298.756 211.446,298.575 201.816,298.379 201.101 C 298.183 200.385,297.929 190.980,297.816 180.200 C 297.703 169.420,297.510 153.535,297.388 144.900 C 297.235 134.117,297.296 129.200,297.582 129.200 C 297.812 129.200,298.000 128.829,298.000 128.376 C 298.000 127.923,298.180 127.664,298.400 127.800 C 298.620 127.936,298.800 127.842,298.800 127.592 C 298.800 127.342,299.487 126.476,300.326 125.669 C 301.165 124.861,302.020 123.909,302.226 123.554 C 302.432 123.198,303.187 122.208,303.904 121.354 C 304.621 120.499,306.038 118.765,307.053 117.500 C 308.068 116.235,309.056 115.200,309.249 115.200 C 309.442 115.200,309.600 114.952,309.600 114.648 C 309.600 114.345,310.284 113.392,311.120 112.531 C 311.955 111.669,312.920 110.564,313.263 110.074 C 313.606 109.584,314.543 108.475,315.344 107.609 C 316.145 106.743,316.800 105.934,316.800 105.811 C 316.800 105.688,317.295 105.127,317.900 104.564 L 319.000 103.542 318.893 71.571 C 318.798 43.208,318.854 39.600,319.393 39.600 C 319.927 39.600,320.000 37.235,320.000 19.800 L 320.000 0.000 285.500 0.070 C 266.525 0.108,250.190 0.210,249.200 0.295 M272.800 66.806 L 272.800 79.212 260.900 79.106 L 249.000 79.000 248.894 67.205 C 248.835 60.717,248.875 55.182,248.981 54.905 C 249.131 54.514,251.849 54.400,260.987 54.400 L 272.800 54.400 272.800 66.806 " stroke="none" fill="#ecdcd4" fill-rule="evenodd"></path><path id="path2" d="M249.381 55.305 C 249.274 55.583,249.235 60.848,249.294 67.005 L 249.400 78.200 261.000 78.200 L 272.600 78.200 272.712 67.400 C 272.774 61.460,272.726 56.195,272.605 55.700 L 272.385 54.800 260.980 54.800 C 252.160 54.800,249.531 54.915,249.381 55.305 " stroke="none" fill="#373636" fill-rule="evenodd"></path><path id="path3" d="M10.488 207.180 C 10.470 207.829,10.810 209.315,11.245 210.480 C 11.680 211.646,12.073 212.780,12.118 213.000 C 12.163 213.220,12.334 213.500,12.498 213.622 C 12.662 213.745,12.835 214.317,12.883 214.894 C 12.931 215.470,13.112 215.855,13.285 215.748 C 13.458 215.640,13.623 215.923,13.650 216.376 C 13.720 217.531,13.766 217.687,14.328 218.700 C 14.603 219.195,14.687 219.603,14.514 219.606 C 14.341 219.609,14.380 219.744,14.600 219.906 C 15.252 220.385,16.000 221.929,16.000 222.795 C 16.000 223.238,16.180 223.600,16.400 223.600 C 16.620 223.600,16.800 223.960,16.800 224.400 C 16.800 224.840,16.980 225.200,17.200 225.200 C 17.420 225.200,17.600 225.483,17.600 225.829 C 17.600 226.174,17.872 226.729,18.204 227.061 C 18.536 227.393,18.705 227.830,18.580 228.032 C 18.455 228.235,18.543 228.400,18.776 228.400 C 19.009 228.400,19.200 228.760,19.200 229.200 C 19.200 229.640,19.335 230.001,19.500 230.003 C 19.859 230.007,20.800 231.944,20.800 232.680 C 20.800 232.966,20.980 233.200,21.200 233.200 C 21.420 233.200,21.600 233.560,21.600 234.000 C 21.600 234.440,21.780 234.800,22.000 234.800 C 22.220 234.800,22.400 235.160,22.400 235.600 C 22.400 236.040,22.536 236.400,22.702 236.400 C 22.869 236.400,23.259 236.985,23.570 237.700 C 23.881 238.415,24.240 239.090,24.368 239.200 C 24.496 239.310,25.032 240.210,25.559 241.200 C 26.087 242.190,26.762 243.284,27.059 243.631 C 27.357 243.979,27.600 244.564,27.600 244.931 C 27.600 245.299,27.758 245.600,27.951 245.600 C 28.145 245.600,28.527 246.140,28.800 246.800 C 29.073 247.460,29.455 248.000,29.649 248.000 C 29.842 248.000,30.000 248.236,30.000 248.525 C 30.000 248.813,30.324 249.398,30.720 249.825 C 31.116 250.251,31.561 250.915,31.708 251.300 C 31.855 251.685,32.171 252.000,32.411 252.000 C 32.651 252.000,32.736 252.180,32.600 252.400 C 32.464 252.620,32.543 252.800,32.776 252.800 C 33.009 252.800,33.200 253.070,33.200 253.400 C 33.200 253.730,33.350 254.000,33.532 254.000 C 33.715 254.000,34.120 254.492,34.432 255.094 C 34.996 256.180,35.739 257.203,36.700 258.216 C 36.975 258.506,37.200 258.844,37.200 258.968 C 37.200 259.092,37.740 259.709,38.400 260.340 C 39.060 260.971,39.600 261.793,39.600 262.167 C 39.600 262.541,39.780 262.736,40.000 262.600 C 40.220 262.464,40.400 262.594,40.400 262.888 C 40.400 263.183,40.760 263.683,41.200 264.000 C 41.640 264.317,42.000 264.814,42.000 265.105 C 42.000 265.772,42.489 266.375,45.100 268.925 C 46.255 270.054,47.200 271.297,47.200 271.688 C 47.200 272.080,47.449 272.400,47.754 272.400 C 48.059 272.400,48.629 272.895,49.022 273.500 C 49.415 274.105,50.065 274.835,50.468 275.123 C 50.871 275.410,51.200 275.905,51.200 276.223 C 51.200 276.540,51.560 276.800,52.000 276.800 C 52.440 276.800,52.800 277.025,52.800 277.301 C 52.800 278.005,60.633 286.034,60.981 285.686 C 61.138 285.529,61.207 285.591,61.133 285.823 C 60.961 286.371,63.635 289.225,64.070 288.957 C 64.251 288.845,64.401 288.988,64.403 289.276 C 64.404 289.564,65.079 290.249,65.903 290.798 C 66.726 291.346,67.850 292.247,68.400 292.799 C 68.950 293.351,70.030 294.272,70.800 294.846 C 71.570 295.420,72.804 296.455,73.542 297.145 C 74.281 297.835,75.046 298.400,75.242 298.400 C 75.439 298.400,75.600 298.670,75.600 299.000 C 75.600 299.330,75.788 299.600,76.018 299.600 C 76.248 299.600,76.890 300.053,77.444 300.608 C 77.998 301.162,78.587 301.531,78.753 301.429 C 78.919 301.327,79.307 301.593,79.615 302.021 C 79.924 302.450,80.417 302.800,80.712 302.800 C 81.006 302.800,81.158 302.944,81.049 303.120 C 80.941 303.296,81.219 303.669,81.668 303.949 C 82.117 304.230,82.376 304.285,82.244 304.071 C 81.744 303.261,84.124 303.200,116.133 303.197 C 149.418 303.193,152.907 303.066,159.000 301.630 C 178.560 297.021,194.630 281.801,199.830 262.959 C 201.550 256.727,201.611 255.551,201.503 230.348 L 201.400 206.200 105.961 206.099 L 10.522 205.998 10.488 207.180 " stroke="none" fill="#ebe8d1" fill-rule="evenodd"></path><path id="path4" d="M318.800 71.200 C 318.800 92.000,318.937 102.800,319.200 102.800 C 319.463 102.800,319.600 92.000,319.600 71.200 C 319.600 50.400,319.463 39.600,319.200 39.600 C 318.937 39.600,318.800 50.400,318.800 71.200 M248.981 54.905 C 248.875 55.182,248.835 60.717,248.894 67.205 L 249.000 79.000 260.900 79.106 C 270.284 79.190,272.800 79.105,272.800 78.706 C 272.800 78.310,270.267 78.200,261.100 78.200 L 249.400 78.200 249.400 66.600 L 249.400 55.000 260.772 54.894 C 269.604 54.811,272.217 54.900,272.466 55.294 C 272.699 55.660,272.789 55.607,272.794 55.100 C 272.802 54.190,249.329 53.998,248.981 54.905 M131.876 329.477 C 131.766 329.654,132.064 329.825,132.538 329.856 C 133.012 329.886,137.360 331.258,142.200 332.905 C 147.040 334.551,151.810 336.118,152.800 336.388 C 153.790 336.657,154.933 337.053,155.339 337.267 C 155.745 337.481,156.178 337.555,156.300 337.433 C 156.558 337.175,154.300 336.177,152.578 335.788 C 150.799 335.386,135.459 330.322,135.000 329.986 C 134.333 329.497,132.090 329.131,131.876 329.477 M206.800 345.551 C 206.800 345.744,209.905 345.900,213.700 345.897 C 219.113 345.892,219.954 345.828,217.600 345.598 C 213.236 345.171,206.800 345.143,206.800 345.551 " stroke="none" fill="#ecbcbc" fill-rule="evenodd"></path></g></svg>